<svg xmlns="http://www.w3.org/2000/svg" width="256" height="256" fill="none"><g fill="#000"><path d="M160 138.7Zv91.1a105.5 105.5 0 0 1-32 4.9 107.7 107.7 0 0 1-98.3-65c-5.6-13-8.4-27-8.4-41.7a107.7 107.7 0 0 1 65-98.3c13-5.6 27-8.4 41.7-8.4a103 103 0 0 1 32 4.9v27.1m-42.7 159.5V192a20 20 0 0 1-15-6.3 20.5 20.5 0 0 1-6.3-15V160l-51.2-51.2-1.5 9.6a83.3 83.3 0 0 0 20.5 66.1 82 82 0 0 0 53.5 28.3ZM160 49.1v4.2c0 5.9-2 11-6.3 15.1a20.5 20.5 0 0 1-15 6.3h-21.4V96a10.3 10.3 0 0 1-10.7 10.7H85.4V128h64a10.3 10.3 0 0 1 10.7 10.7v32"/><path d="M149.3 165.3c-4.4 0-8.2-1.5-11.3-4.6a15.4 15.4 0 0 1-4.7-11.4c0-4.4 1.6-8.2 4.7-11.3 3.1-3.1 6.9-4.7 11.3-4.7a15.8 15.8 0 0 1 16 16c0 4.5-1.5 8.3-4.6 11.4a15.4 15.4 0 0 1-11.4 4.6Zm0-42.6c-4.4 0-8.2-1.6-11.3-4.7a15.4 15.4 0 0 1-4.7-11.3 15.8 15.8 0 0 1 16-16c4.5 0 8.3 1.5 11.4 4.6 3 3.1 4.6 7 4.6 11.4s-1.5 8.2-4.6 11.3a15.4 15.4 0 0 1-11.4 4.7Zm0 80a10.4 10.4 0 0 1-10.6-10.7c0-3 1-5.6 3-7.6s4.6-3 7.6-3 5.6 1 7.6 3 3.1 4.6 3.1 7.6-1 5.6-3 7.6c-2.1 2-4.6 3-7.7 3Zm0-128A10.4 10.4 0 0 1 138.7 64c0-3 1-5.6 3-7.6s4.6-3 7.6-3 5.6 1 7.6 3S160 61 160 64s-1 5.6-3 7.6c-2.1 2-4.6 3-7.7 3Zm0 154.6a5 5 0 0 1-3.7-1.6 5.1 5.1 0 0 1 0-7.4 5.1 5.1 0 0 1 7.5 0 5.1 5.1 0 0 1 0 7.4 5 5 0 0 1-3.8 1.6Zm0-192a5 5 0 0 1-3.7-1.6 5.1 5.1 0 0 1 0-7.4 5.1 5.1 0 0 1 7.5 0 5.1 5.1 0 0 1 0 7.4 5 5 0 0 1-3.8 1.6ZM192 202.7a10.4 10.4 0 0 1-10.6-10.7c0-3 1-5.6 3-7.6s4.6-3 7.6-3 5.6 1 7.6 3 3 4.6 3 7.6-1 5.6-3 7.6-4.6 3-7.6 3Zm0-42.7a10.3 10.3 0 0 1-10.7-10.7 10.4 10.4 0 0 1 10.7-10.6c3 0 5.6 1 7.6 3s3 4.6 3 7.6-1 5.6-3 7.6-4.6 3.1-7.6 3.1Zm0-42.7a10.3 10.3 0 0 1-10.7-10.7c0-3 1-5.5 3.1-7.5 2-2 4.6-3.1 7.6-3.1s5.6 1 7.6 3c2 2.1 3 4.6 3 7.7a10.3 10.3 0 0 1-10.7 10.7Zm0-42.6A10.4 10.4 0 0 1 181.4 64c0-3 1-5.6 3-7.6s4.6-3 7.6-3 5.6 1 7.6 3 3 4.6 3 7.6-1 5.6-3 7.6-4.6 3-7.6 3Zm32 80c-1.4 0-2.7-.6-3.7-1.6a5.1 5.1 0 0 1 0-7.5 5.1 5.1 0 0 1 7.4 0 5.1 5.1 0 0 1 0 7.5c-1 1-2.3 1.6-3.7 1.6Zm0-42.7c-1.4 0-2.7-.5-3.7-1.6a5.1 5.1 0 0 1 0-7.5 5.1 5.1 0 0 1 7.4 0 5.1 5.1 0 0 1 0 7.5c-1 1-2.3 1.6-3.7 1.6Z"/></g></svg>
