<svg xmlns="http://www.w3.org/2000/svg" width="256" height="256" fill="none"><path fill="#000" d="M117.3 244.8v-21.3a93.4 93.4 0 0 1-57.2-27.6c-15.9-16-25-35-27.6-57.2H11.2v-21.4h21.3a93.4 93.4 0 0 1 27.6-57.2c16-15.9 35-25 57.2-27.6V11.2h21.4v21.3a93.4 93.4 0 0 1 57.2 27.6c15.9 16 25 35 27.6 57.2h21.3v21.4h-21.3a93.4 93.4 0 0 1-27.6 57.2c-16 15.9-35 25-57.2 27.6v21.3h-21.4Zm10.7-42.1a72 72 0 0 0 52.8-21.9 72 72 0 0 0 21.9-52.8 72 72 0 0 0-21.9-52.8A72 72 0 0 0 128 53.3a72 72 0 0 0-52.8 21.9A72 72 0 0 0 53.3 128a72 72 0 0 0 21.9 52.8 72 72 0 0 0 52.8 21.9Zm0-32A41 41 0 0 1 97.9 158a41 41 0 0 1-12.6-30A41 41 0 0 1 98 97.9a41 41 0 0 1 30-12.6A41 41 0 0 1 158.1 98a41 41 0 0 1 12.6 30.1 41 41 0 0 1-12.6 30.1 41 41 0 0 1-30.1 12.6Zm0-21.4a20 20 0 0 0 15-6.2c4.2-4.2 6.3-9.2 6.3-15.1s-2-10.9-6.2-15a20.5 20.5 0 0 0-15.1-6.3 20 20 0 0 0-15 6.2 20.5 20.5 0 0 0-6.3 15.1 20 20 0 0 0 6.2 15c4.2 4.2 9.2 6.3 15.1 6.3Zm0-21.3Z" class="fills"/></svg>
